<?xml version="1.0" encoding="UTF-8"?>
<svg width="100px" height="103px" viewBox="0 0 100 103" version="1.1" xmlns="http://www.w3.org/2000/svg" xmlns:xlink="http://www.w3.org/1999/xlink">
    <!-- Generator: Sketch 52.5 (67469) - http://www.bohemiancoding.com/sketch -->
    <title>Shape</title>
    <desc>Created with Sketch.</desc>
    <defs>
        <linearGradient x1="125.415991%" y1="-14.7189348%" x2="-14.804957%" y2="117.468741%" id="linearGradient-1">
            <stop stop-color="#17B696" offset="0%"></stop>
            <stop stop-color="#097BAD" offset="100%"></stop>
        </linearGradient>
    </defs>
    <g id="Page-1" stroke="none" stroke-width="1" fill="none" fill-rule="evenodd">
        <g id="infiome" transform="translate(-1010.000000, -3969.000000)" fill="url(#linearGradient-1)" fill-rule="nonzero">
            <g id="Group-5" transform="translate(936.000000, 3904.000000)">
                <g id="Group-6">
                    <path d="M116.158361,118.921572 C116.158361,121.753177 113.862876,124.048495 111.031271,124.048495 C108.199666,124.048495 105.904515,121.75301 105.904515,118.921572 C105.904515,116.090134 108.199833,113.794649 111.031271,113.794649 C113.862876,113.794649 116.158361,116.090134 116.158361,118.921572 Z M136.968896,113.794649 C134.137458,113.794649 131.841806,116.089967 131.841806,118.921572 C131.841806,121.753177 134.137625,124.048495 136.968896,124.048495 C139.800669,124.048495 142.095652,121.75301 142.095652,118.921572 C142.095652,116.090134 139.800502,113.794649 136.968896,113.794649 Z M158.869064,134.664883 L158.869064,134.080936 C158.281438,135.786288 157.575753,137.406187 156.816722,138.981104 C156.957525,139.946488 157.21806,141.29398 157.656187,142.834448 C159.763211,146.093311 165.709365,150.245151 169.78612,151.314716 C167.58796,152.248328 164.940134,152.632776 162.364883,152.238629 C164.723913,155.207023 168.048495,157.902341 172.739298,159.50602 C161.774749,169.388462 143.708528,169.608194 131.080602,161.933445 C128.633278,162.653177 126.241806,163.030435 124.000167,163.030435 C121.758528,163.030435 119.36689,162.653177 116.9199,161.933445 C104.291639,169.608361 86.2257525,169.388462 75.261204,159.50602 C80.0459866,157.870401 83.4016722,155.09699 85.7687291,152.058194 C83.6750836,152.138294 81.5974916,151.757191 79.8173913,151.001171 C82.8043478,150.217559 86.793311,147.776923 89.5454849,145.246488 C90.5085284,142.700502 90.9734114,140.424415 91.183612,138.980936 C90.4245819,137.40602 89.7188963,135.786288 89.1314381,134.080769 L89.1314381,134.664883 L82.9309365,134.664883 C78.0389632,134.664883 74.0732441,130.698997 74.0732441,125.807191 L74.0732441,116.063712 C74.0732441,112.697324 75.9513378,109.7699 78.7168896,108.271237 C78.809699,94.4377926 82.8416388,83.6339465 90.7177258,76.1647157 C98.5301003,68.756689 109.727926,65 124,65 C138.272241,65 149.470067,68.756689 157.282274,76.1650502 C165.158528,83.6341137 169.190134,94.4377926 169.283278,108.271572 C172.048662,109.770234 173.926756,112.697492 173.926756,116.06388 L173.926756,125.807191 C173.926756,130.699164 169.961037,134.664883 165.069064,134.664883 L158.869064,134.664883 Z M155.179599,118.954181 C155.179599,116.674916 155.063043,114.533445 154.890468,112.458361 C150.894147,108.802341 143.583278,106.044816 134.364381,105.072408 C135.826923,106.383612 137.082776,108.132107 137.754515,110.628595 C132.394147,106.710368 121.159866,105.49699 117.428261,101.298662 L117.43194,101.298328 C111.49214,97.3665552 109.933445,91.7349498 109.883278,94.0658863 C109.642809,105.244482 101.719732,113.95903 92.9215719,115.188462 C92.8658863,116.417893 92.8202341,117.658863 92.8202341,118.954181 C92.8202341,123.679264 93.591806,127.985284 94.9035117,131.866221 C99.8454849,137.827425 108.007023,139.510702 115.230936,139.957358 C116.571906,137.823579 119.580769,136.334281 123.084783,136.334281 C127.835452,136.334281 131.686455,139.067893 131.686455,142.440134 C131.686455,145.812542 127.835452,148.546154 123.084783,148.546154 C119.430435,148.546154 116.316388,146.926087 115.0699,144.644482 C110.021237,144.351003 104.471237,143.490635 99.5247492,141.154682 C106.481438,151.408027 117.26505,156.8301 123.999498,156.8301 C134.582609,156.829933 155.179599,143.461037 155.179599,118.954181 Z M160.542475,107.206355 L163.950669,107.206355 C163.386957,83.0667224 149.608027,70.3147157 124,70.3147157 C98.3919732,70.3147157 84.6133779,83.0667224 84.0496656,107.206355 L87.4575251,107.206355 C88.7035117,99.0702341 91.3371237,92.3785953 95.3356187,87.2337793 C101.707525,79.0352843 111.351672,74.8779264 124,74.8779264 C136.648328,74.8779264 146.292475,79.0349498 152.664716,87.233612 C156.663043,92.3785953 159.296488,99.0700669 160.542475,107.206355 Z" id="Shape"></path>
                </g>
            </g>
        </g>
    </g>
</svg>