<?xml version="1.0"?>
<svg xmlns="http://www.w3.org/2000/svg" viewBox="0 -1 512 512" width="512px" height="512px" class=""><g><path d="m163.859375 469.582031h14.96875v40.921875h-14.96875zm0 0" data-original="#000000" class="active-path" data-old_color="#000000" fill="#07889B"/><path d="m333.171875 469.582031h14.96875v40.921875h-14.96875zm0 0" data-original="#000000" class="active-path" data-old_color="#000000" fill="#07889B"/><path d="m463.878906 347.464844h-22.988281v-13.074219c14.304687-9.917969 23.703125-26.445313 23.703125-45.132813v-28.445312c0-30.269531-24.625-54.894531-54.894531-54.894531-30.265625 0-54.890625 24.625-54.890625 54.894531v28.445312c0 18.6875 9.394531 35.214844 23.703125 45.132813v13.070313h-22.996094c-22.914063 0-42.367187 16.203124-47.042969 38h-13.796875v-20.804688c18.785157-12.535156 31.1875-33.917969 31.1875-58.148438v-37.425781c0-38.523437-31.339843-69.863281-69.863281-69.863281s-69.863281 31.339844-69.863281 69.863281v37.425781c0 24.230469 12.402343 45.609376 31.1875 58.148438v20.804688h-13.796875c-4.675782-21.796876-24.128906-38-47.042969-38h-22.996094v-13.070313c14.308594-9.917969 23.703125-26.445313 23.703125-45.132813v-28.445312c0-30.269531-24.625-54.894531-54.890625-54.894531-30.269531 0-54.894531 24.625-54.894531 54.894531v28.445312c0 18.6875 9.398438 35.214844 23.703125 45.132813v13.074219h-22.988281c-26.535156 0-48.121094 21.585937-48.121094 48.121094v114.917968h14.972656v-114.917968c0-18.28125 14.867188-33.152344 33.148438-33.152344h23.746094c3.117187 13.933594 15.574218 24.382812 30.433593 24.382812s27.316407-10.449218 30.433594-24.382812h23.75c14.664063 0 27.265625 9.628906 31.5625 23.027344h-3.335937c-33.609376 0-60.953126 27.34375-60.953126 60.953124v64.089844h14.972657v-64.089844c0-25.355468 20.625-45.980468 45.980469-45.980468h33.1875c3.140624 18.191406 19.023437 32.078125 38.101562 32.078125s34.960938-13.886719 38.101562-32.078125h33.1875c25.355469 0 45.980469 20.625 45.980469 45.980468v64.089844h14.972657v-64.089844c0-33.609374-27.34375-60.953124-60.953126-60.953124h-3.335937c4.296875-13.398438 16.902344-23.027344 31.5625-23.027344h23.75c3.117187 13.933594 15.574219 24.382812 30.433594 24.382812s27.316406-10.449218 30.433593-24.382812h23.746094c18.28125 0 33.148438 14.871094 33.148438 33.152344v114.917968h14.972656v-114.917968c0-26.535157-21.585938-48.121094-48.121094-48.121094zm-361.578125-126.574219c21.789063 0 39.542969 17.546875 39.90625 39.25-5.183593-7.203125-13.535156-11.554687-22.558593-11.554687h-34.699219c-9.019531 0-17.371094 4.355468-22.554688 11.554687.359375-21.703125 18.117188-39.25 39.90625-39.25zm16.21875 134.734375c0 8.945312-7.277343 16.21875-16.21875 16.21875-8.941406 0-16.21875-7.273438-16.21875-16.21875v-13.921875c5.128907 1.585937 10.574219 2.445313 16.21875 2.445313s11.089844-.859376 16.21875-2.445313zm-16.21875-26.445312c-21.40625 0-38.925781-16.9375-39.875-38.113282l11.238281-20.78125c2.242188-4.152344 6.566407-6.730468 11.285157-6.730468h34.699219c4.71875 0 9.046874 2.578124 11.289062 6.730468l11.238281 20.78125c-.949219 21.175782-18.46875 38.113282-39.875 38.113282zm98.804688-60.097657c0-30.269531 24.625-54.894531 54.894531-54.894531s54.894531 24.625 54.894531 54.894531v7.851563l-1.96875-3.632813c-5.984375-11.066406-17.515625-17.941406-30.097656-17.941406h-45.65625c-12.582031 0-24.113281 6.875-30.101563 17.941406l-1.964843 3.632813zm78.597656 124.753907c0 13.074218-10.632813 23.707031-23.703125 23.707031s-23.703125-10.632813-23.703125-23.707031v-21.609376c7.40625 2.679688 15.386719 4.144532 23.703125 4.144532s16.296875-1.464844 23.703125-4.144532zm-23.703125-32.433594c-29.660156 0-53.886719-23.652344-54.847656-53.082032l15.089844-27.898437c3.363281-6.226563 9.851562-10.09375 16.929687-10.09375h45.65625c7.078125 0 13.566406 3.871094 16.929687 10.09375l15.089844 27.898437c-.960937 29.429688-25.1875 53.082032-54.847656 53.082032zm153.699219-140.511719c21.789062 0 39.546875 17.546875 39.90625 39.25-5.183594-7.203125-13.535157-11.554687-22.554688-11.554687h-34.699219c-9.023437 0-17.375 4.355468-22.558593 11.554687.363281-21.703125 18.117187-39.25 39.90625-39.25zm16.21875 134.734375c0 8.945312-7.277344 16.21875-16.21875 16.21875-8.941407 0-16.21875-7.273438-16.21875-16.21875v-13.921875c5.128906 1.585937 10.574219 2.445313 16.21875 2.445313s11.089843-.859376 16.21875-2.445313zm-16.21875-26.445312c-21.40625 0-38.925781-16.9375-39.875-38.113282l11.238281-20.78125c2.246094-4.152344 6.570312-6.730468 11.289062-6.730468h34.699219c4.71875 0 9.042969 2.578124 11.285157 6.730468l11.238281 20.78125c-.949219 21.175782-18.46875 38.113282-39.875 38.113282zm0 0" data-original="#000000" class="active-path" data-old_color="#000000" fill="#07889B"/><path d="m466.554688 413.191406h14.96875v97.3125h-14.96875zm0 0" data-original="#000000" class="active-path" data-old_color="#000000" fill="#07889B"/><path d="m30.476562 413.191406h14.96875v97.3125h-14.96875zm0 0" data-original="#000000" class="active-path" data-old_color="#000000" fill="#07889B"/><path d="m68.367188 163.625 24.363281-43.859375h43.003906v-119.765625h-134.734375v119.765625h43zm-52.398438-148.652344h104.796875v89.824219h-36.84375l-15.554687 28-15.558594-28h-36.839844zm0 0" data-original="#000000" class="active-path" data-old_color="#000000" fill="#07889B"/><path d="m377.261719 0v119.765625h43.003906l24.367187 43.859375 24.363282-43.859375h43.003906v-119.765625zm119.765625 104.796875h-36.839844l-15.554688 28-15.558593-28h-36.839844v-89.824219h104.792969zm0 0" data-original="#000000" class="active-path" data-old_color="#000000" fill="#07889B"/><path d="m256.5 163.625 24.363281-43.859375h82.425781v-119.765625h-213.582031v119.765625h82.425781zm-91.820312-148.652344h183.640624v89.824219h-76.265624l-15.554688 28-15.558594-28h-76.261718zm0 0" data-original="#000000" class="active-path" data-old_color="#000000" fill="#07889B"/><path d="m63.375 39.921875h39.921875v14.972656h-39.921875zm0 0" data-original="#000000" class="active-path" data-old_color="#000000" fill="#07889B"/><path d="m33.433594 39.921875h14.972656v14.972656h-14.972656zm0 0" data-original="#000000" class="active-path" data-old_color="#000000" fill="#07889B"/><path d="m33.433594 69.863281h39.921875v14.972657h-39.921875zm0 0" data-original="#000000" class="active-path" data-old_color="#000000" fill="#07889B"/><path d="m88.328125 69.863281h14.96875v14.972657h-14.96875zm0 0" data-original="#000000" class="active-path" data-old_color="#000000" fill="#07889B"/><path d="m439.640625 39.921875h39.921875v14.972656h-39.921875zm0 0" data-original="#000000" class="active-path" data-old_color="#000000" fill="#07889B"/><path d="m409.699219 39.921875h14.972656v14.972656h-14.972656zm0 0" data-original="#000000" class="active-path" data-old_color="#000000" fill="#07889B"/><path d="m409.699219 69.863281h39.921875v14.972657h-39.921875zm0 0" data-original="#000000" class="active-path" data-old_color="#000000" fill="#07889B"/><path d="m464.59375 69.863281h14.96875v14.972657h-14.96875zm0 0" data-original="#000000" class="active-path" data-old_color="#000000" fill="#07889B"/><path d="m271.46875 34.933594h14.972656v14.96875h-14.972656zm0 0" data-original="#000000" class="active-path" data-old_color="#000000" fill="#07889B"/><path d="m301.410156 34.933594h24.953125v14.96875h-24.953125zm0 0" data-original="#000000" class="active-path" data-old_color="#000000" fill="#07889B"/><path d="m186.636719 34.933594h69.863281v14.96875h-69.863281zm0 0" data-original="#000000" class="active-path" data-old_color="#000000" fill="#07889B"/><path d="m311.390625 65.871094h14.972656v14.972656h-14.972656zm0 0" data-original="#000000" class="active-path" data-old_color="#000000" fill="#07889B"/><path d="m186.636719 65.871094h39.921875v14.972656h-39.921875zm0 0" data-original="#000000" class="active-path" data-old_color="#000000" fill="#07889B"/><path d="m241.527344 65.871094h54.894531v14.972656h-54.894531zm0 0" data-original="#000000" class="active-path" data-old_color="#000000" fill="#07889B"/></g> </svg>
