<?xml version="1.0" encoding="UTF-8"?>
<svg width="100px" height="82px" viewBox="0 0 100 82" version="1.1" xmlns="http://www.w3.org/2000/svg" xmlns:xlink="http://www.w3.org/1999/xlink">
    <!-- Generator: Sketch 52.5 (67469) - http://www.bohemiancoding.com/sketch -->
    <title>family</title>
    <desc>Created with Sketch.</desc>
    <defs>
        <linearGradient x1="125.415991%" y1="-14.7189348%" x2="-14.804957%" y2="117.468741%" id="linearGradient-1">
            <stop stop-color="#17B696" offset="0%"></stop>
            <stop stop-color="#097BAD" offset="100%"></stop>
        </linearGradient>
    </defs>
    <g id="Page-1" stroke="none" stroke-width="1" fill="none" fill-rule="evenodd">
        <g id="infiome" transform="translate(-247.000000, -1190.000000)" fill="url(#linearGradient-1)">
            <g id="family" transform="translate(247.000000, 1190.000000)">
                <path d="M51.759375,78.1644531 C51.3960937,77.8009766 50.8921875,77.5921875 50.3787109,77.5921875 C49.8650391,77.5921875 49.3611328,77.8009766 48.9980469,78.1644531 C48.6347656,78.5296875 48.4257812,79.0316406 48.4257812,79.5470703 C48.4257812,80.0607422 48.6347656,80.5626953 48.9980469,80.9257812 C49.3613281,81.2910156 49.8652344,81.5 50.3787109,81.5 C50.8923828,81.5 51.3962891,81.2910156 51.759375,80.9257812 C52.1226563,80.5626953 52.3316406,80.0605469 52.3316406,79.5470703 C52.3316406,79.0314453 52.1226563,78.5296875 51.759375,78.1644531 Z" id="Path"></path>
                <path d="M99.9917969,79.3818359 L99.9917969,69.5908203 C99.9917969,60.1482422 93.5992187,51.9638672 84.4460938,49.6880859 C83.3992188,49.4271484 82.3398438,50.0654297 82.0794922,51.1119141 C81.8191406,52.1585937 82.4568359,53.2181641 83.5035156,53.4783203 C90.9119141,55.3205078 96.0859375,61.9460938 96.0859375,69.590625 L96.0859375,77.5929688 L88.6941406,77.5929688 L88.6941406,67.9658203 C88.6941406,66.8873047 87.8197266,66.0128906 86.7412109,66.0128906 C85.6625,66.0128906 84.7882812,66.8875 84.7882812,67.9658203 L84.7882812,77.5929688 L70.0208984,77.5929688 L70.0208984,72.9550781 C70.0208984,66.396875 65.5806641,60.7123047 59.2232422,59.1316406 C59.2017578,59.1263672 59.1802734,59.1212891 59.1585937,59.1166016 L58.990625,59.0808594 C61.1882812,56.8224609 62.5455078,53.7443359 62.5455078,50.3541016 L62.5455078,48.1617187 C62.5455078,48.0607422 62.5402344,47.9611328 62.5378906,47.8607422 C64.8734375,49.4117187 67.6736328,50.3181641 70.6826172,50.3181641 C78.8150391,50.3181641 85.4310547,43.7111328 85.4310547,35.5900391 L85.4310547,27.0603516 C85.4310547,25.9818359 84.5566406,25.1074219 83.478125,25.1074219 L78.265625,25.1074219 L79.6417969,18.3654297 C79.8121094,17.5314453 79.4226563,16.6837891 78.6794922,16.2693359 C77.9359375,15.8544922 77.0103516,15.9693359 76.3902344,16.5523437 L67.2939453,25.1076172 L57.8871094,25.1076172 C56.8083984,25.1076172 55.9341797,25.9822266 55.9341797,27.0605469 L55.9341797,35.5902344 C55.9341797,36.1189453 55.9636719,36.6408203 56.0183594,37.1552734 C54.7953125,36.4833984 53.4490234,36.0109375 52.0228516,35.7783203 L52.0228516,22.7806641 C52.0228516,12.4503906 60.4269531,4.04648437 70.7568359,4.04648437 C81.0867187,4.04648437 89.4910156,12.4505859 89.4910156,22.7806641 L89.4910156,46.0927734 C89.4910156,47.1712891 90.3654297,48.0457031 91.4439453,48.0457031 C92.5226562,48.0457031 93.396875,47.1710937 93.396875,46.0927734 L93.396875,22.7806641 C93.396875,10.296875 83.240625,0.140625 70.7568359,0.140625 C63.0380859,0.140625 56.2103516,4.02421875 52.121875,9.93945312 L52.121875,3.35019531 C52.121875,2.63671875 51.7328125,1.98007813 51.1070312,1.63730469 C50.48125,1.29453125 49.7183594,1.3203125 49.1171875,1.7046875 L43.4546875,5.32324219 C42.1097656,6.1828125 40.5548828,6.63730469 38.9587891,6.63730469 L23.6875,6.63730469 C16.0091797,6.63730469 9.7625,12.8837891 9.7625,20.5623047 L9.7625,32.2261719 C9.7625,33.3046875 10.6369141,34.1791016 11.7154297,34.1791016 L12.9296875,34.1791016 C12.996875,34.1791016 13.0634766,34.1761719 13.1304688,34.1746094 L13.1304688,34.2351563 C13.1304688,43.1076172 20.3587891,50.3259766 29.2435547,50.3259766 C32.2384766,50.3259766 35.0435547,49.503125 37.4488281,48.0759766 C37.4486328,48.1044922 37.4466797,48.1328125 37.4466797,48.1615234 L37.4466797,50.3539063 C37.4466797,53.7449219 38.8042969,56.8234375 41.0025391,59.0818359 L40.8490234,59.1132813 C40.8222656,59.11875 40.7955078,59.125 40.76875,59.1316406 C34.4113281,60.7123047 29.9710937,66.396875 29.9710937,72.9550781 L29.9710937,77.5931641 L17.0363281,77.5931641 L17.0363281,67.9660156 C17.0363281,66.8875 16.1619141,66.0130859 15.0833984,66.0130859 C14.0046875,66.0130859 13.1304688,66.8876953 13.1304688,67.9660156 L13.1304688,77.5931641 L3.90585938,77.5931641 L3.90585938,69.5927734 C3.90585938,61.9457031 9.08164063,55.3179688 16.4923828,53.4751953 C17.5392578,53.2150391 18.1765625,52.1554688 17.9164062,51.1087891 C17.65625,50.0621094 16.5964844,49.4236328 15.5498047,49.6849609 C6.39433594,51.9615234 0,60.1478516 0,69.5927734 L0,79.5460938 C0,80.6246094 0.874414062,81.4990234 1.95292969,81.4990234 L41.4677734,81.4990234 C42.5464844,81.4990234 43.4207031,80.6244141 43.4207031,79.5460938 C43.4207031,78.4677734 42.5462891,77.5931641 41.4677734,77.5931641 L33.8765625,77.5931641 L33.8765625,72.9550781 C33.8765625,68.2078125 37.0802734,64.0917969 41.6726562,62.9316406 L45.6628906,62.1160156 C47.0138672,62.6140625 48.4734375,62.8865234 49.9955078,62.8865234 C51.5388672,62.8865234 53.0175781,62.6052734 54.384375,62.09375 L58.3109375,62.9296875 C62.9070312,64.0875 66.1146484,68.2054687 66.1146484,72.9550781 L66.1146484,77.5931641 L60.5919922,77.5931641 C59.5132812,77.5931641 58.6390625,78.4677734 58.6390625,79.5460937 C58.6390625,80.6244141 59.5134766,81.4990234 60.5919922,81.4990234 L98.0466797,81.4990234 C99.1253906,81.4990234 99.9996094,80.6244141 99.9996094,79.5460937 C100,79.490625 99.9962891,79.4359375 99.9917969,79.3818359 Z M59.8398438,29.0132813 L68.0679688,29.0132813 C68.5652344,29.0132813 69.0439453,28.8234375 69.4058594,28.4828125 L74.5837891,23.6126953 L73.9597656,26.6695313 C73.8423828,27.2441406 73.9896484,27.8408203 74.3605469,28.2951172 C74.7314453,28.7494141 75.2869141,29.0130859 75.8732422,29.0130859 L81.5248047,29.0130859 L81.5248047,35.5898438 C81.5248047,41.5572266 76.6609375,46.4119141 70.6824219,46.4119141 C64.7039063,46.4119141 59.8400391,41.5572266 59.8400391,35.5898438 L59.8400391,29.0132813 L59.8398438,29.0132813 Z M49.9958984,39.5181641 C53.7714844,39.5181641 56.9873047,41.9523438 58.1617188,45.3332031 C56.7527344,45.1244141 55.4955078,44.384375 54.7021484,43.2642578 C54.2900391,42.6822266 53.5935547,42.3712891 52.8849609,42.4527344 C52.1765625,42.534375 51.5689453,42.9957031 51.2998047,43.6560547 C50.4117188,45.8355469 48.1125,47.2998047 45.5785156,47.2998047 C44.2535156,47.2998047 42.9921875,46.9154297 41.93125,46.1884766 C41.8320312,46.1205078 41.728125,46.0644531 41.6220703,46.0169922 C42.5783203,42.2849609 45.9699219,39.5181641 49.9958984,39.5181641 Z M45.1847656,36.5728516 C45.2964844,35.809375 45.3568359,35.0294922 45.3568359,34.2355469 L45.3568359,24.8164062 C46.3691406,24.1923828 47.2957031,23.4439453 48.1189453,22.5941406 C48.1183594,22.65625 48.1164063,22.7181641 48.1164063,22.7806641 L48.1164063,35.7535156 C47.0935547,35.9078125 46.1115234,36.1865234 45.1847656,36.5728516 Z M13.6681641,30.2220703 L13.6681641,20.5625 C13.6681641,15.0378906 18.1626953,10.5433594 23.6873047,10.5433594 L38.9583984,10.5433594 C41.3015625,10.5433594 43.5835937,9.87636719 45.5578125,8.61445313 L48.2154297,6.91621094 L48.2154297,12.7322266 C48.2154297,18.4009766 43.6035156,23.0130859 37.9345703,23.0130859 L20.1898437,23.0130859 C19.1111328,23.0130859 18.2369141,23.8876953 18.2369141,24.9660156 C18.2369141,27.6417969 16.2462891,29.8615234 13.6681641,30.2220703 Z M29.24375,46.4203125 C22.5126953,46.4203125 17.0363281,40.9541016 17.0363281,34.2353516 L17.0363281,33.2105469 C19.4988281,31.9791016 21.3369141,29.678125 21.9347656,26.91875 L37.9347656,26.91875 C39.1480469,26.91875 40.3259766,26.7650391 41.4509766,26.4771484 L41.4509766,34.2353516 C41.4509766,40.9541016 35.9748047,46.4203125 29.24375,46.4203125 Z M58.6394531,50.3541016 C58.6394531,55.1109375 54.7621094,58.9808594 49.9960938,58.9808594 C45.2300781,58.9808594 41.3525391,55.1109375 41.3525391,50.3539062 L41.3525391,50.3189453 C42.6667969,50.9019531 44.1001953,51.2060547 45.5785156,51.2060547 C48.6990234,51.2060547 51.6158203,49.7949219 53.4861328,47.5220703 C54.9515625,48.5970703 56.7476562,49.2267578 58.6396484,49.2945312 L58.6396484,50.3541016 L58.6394531,50.3541016 Z" id="Shape" fill-rule="nonzero"></path>
                <path d="M25.4746094,32.6205078 L25.3779297,32.5607422 C24.4589844,31.9953125 23.2564453,32.2816406 22.6910156,33.2003906 C22.1255859,34.1191406 22.4121094,35.321875 23.3308594,35.8873047 L23.4275391,35.9470703 C23.746875,36.1435547 24.1001953,36.2369141 24.4494141,36.2369141 C25.1050781,36.2369141 25.7455078,35.9068359 26.1144531,35.3072266 C26.6796875,34.3886719 26.3933594,33.1859375 25.4746094,32.6205078 Z" id="Path"></path>
                <path d="M35.7625,32.621875 L35.6636719,32.5607422 C34.7447266,31.9953125 33.5421875,32.2816406 32.9767578,33.2003906 C32.4113281,34.1191406 32.6978516,35.321875 33.6166016,35.8873047 L33.7109375,35.9457031 C34.0306641,36.1431641 34.3849609,36.2369141 34.7349609,36.2369141 C35.3898438,36.2369141 36.0294922,35.9074219 36.3986328,35.309375 C36.9650391,34.3917969 36.6804688,33.1884766 35.7625,32.621875 Z" id="Path"></path>
                <path d="M66.6117188,32.6205078 L66.5148438,32.5607422 C65.5958984,31.9953125 64.3933594,32.2816406 63.8279297,33.2003906 C63.2625,34.1191406 63.5490234,35.3220703 64.4677734,35.8875 L64.5644531,35.9472656 C64.8837891,36.14375 65.2371094,36.2371094 65.5863281,36.2371094 C66.2419922,36.2371094 66.8824219,35.9070313 67.2513672,35.3074219 C67.8166016,34.3886719 67.5302734,33.1859375 66.6117188,32.6205078 Z" id="Path"></path>
                <path d="M76.8970703,32.6205078 L76.7982422,32.559375 C75.8789063,31.9955078 74.6763672,32.2832031 74.1123047,33.2027344 C73.5480469,34.1222656 73.8361328,35.3246094 74.7554688,35.8888672 L74.85,35.9472656 C75.1693359,36.14375 75.5226563,36.2371094 75.871875,36.2371094 C76.5275391,36.2371094 77.1679688,35.9070313 77.5369141,35.3074219 C78.1021484,34.3886719 77.815625,33.1859375 76.8970703,32.6205078 Z" id="Path"></path>
                <path d="M73.2078125,39.3285156 C72.7306641,38.4425781 71.6683594,38.0740234 70.7564453,38.4435547 C69.8449219,38.0736328 68.7820313,38.4427734 68.3050781,39.3287109 C67.79375,40.2785156 68.1492188,41.4628906 69.0990234,41.9742187 C69.60625,42.2470703 70.1794922,42.3916016 70.7564453,42.3916016 C71.3337891,42.3916016 71.9070313,42.2472656 72.4142578,41.9740234 C73.3638672,41.4625 73.7191406,40.278125 73.2078125,39.3285156 Z" id="Path"></path>
                <path d="M31.6949219,39.3285156 C31.2177734,38.4425781 30.1554687,38.0740234 29.2435547,38.4435547 C28.3320312,38.0736328 27.2691406,38.4427734 26.7921875,39.3287109 C26.2808594,40.2785156 26.6363281,41.4628906 27.5861328,41.9742187 C28.0933594,42.2470703 28.6666016,42.3916016 29.2435547,42.3916016 C29.8208984,42.3916016 30.3941406,42.2472656 30.9013672,41.9740234 C31.8509766,41.4625 32.2060547,40.278125 31.6949219,39.3285156 Z" id="Path"></path>
            </g>
        </g>
    </g>
</svg>