<?xml version="1.0" encoding="UTF-8"?>
<svg width="100px" height="112px" viewBox="0 0 100 112" version="1.1" xmlns="http://www.w3.org/2000/svg" xmlns:xlink="http://www.w3.org/1999/xlink">
    <!-- Generator: Sketch 52.5 (67469) - http://www.bohemiancoding.com/sketch -->
    <title>form</title>
    <desc>Created with Sketch.</desc>
    <defs>
        <linearGradient x1="125.415991%" y1="-14.7189348%" x2="-14.804957%" y2="117.468741%" id="linearGradient-1">
            <stop stop-color="#17B696" offset="0%"></stop>
            <stop stop-color="#097BAD" offset="100%"></stop>
        </linearGradient>
    </defs>
    <g id="Page-1" stroke="none" stroke-width="1" fill="none" fill-rule="evenodd">
        <g id="infiome" transform="translate(-671.000000, -3968.000000)" fill="url(#linearGradient-1)" fill-rule="nonzero">
            <g id="form" transform="translate(671.000000, 3968.000000)">
                <path d="M31.8774412,107.42261 C31.8774412,109.83457 29.9226281,111.789383 27.5106684,111.789383 L17.4670911,111.789383 C7.83545735,111.789383 0,103.953925 0,94.3222917 L0,17.4670911 C0,7.83545735 7.83545735,0 17.4670911,0 L71.1545153,0 C80.7852961,0 88.6216063,7.83545735 88.6216063,17.4670911 L88.6216063,43.449389 C88.6216063,45.8613486 86.6659404,47.8161618 84.2548335,47.8161618 C81.8428739,47.8161618 79.8880608,45.8613486 79.8880608,43.449389 L79.8880608,17.4670911 C79.8880608,12.6517005 75.9699056,8.73354553 71.1545153,8.73354553 L17.4670911,8.73354553 C12.6517005,8.73354553 8.73354553,12.6517005 8.73354553,17.4670911 L8.73354553,94.3222917 C8.73354553,99.1376822 12.6517005,103.055837 17.4670911,103.055837 L27.5106684,103.055837 C29.9226281,103.055837 31.8774412,105.01065 31.8774412,107.42261 Z M71.1536624,30.5674093 C71.1536624,28.1554497 69.1988493,26.2006366 66.7868897,26.2006366 L21.8091302,26.2006366 C19.3980234,26.2006366 17.4423574,28.1554497 17.4423574,30.5674093 C17.4423574,32.979369 19.3980234,34.9341821 21.8091302,34.9341821 L66.7868897,34.9341821 C69.1988493,34.9341821 71.1536624,32.979369 71.1536624,30.5674093 Z M53.711305,48.0345004 C53.711305,45.6225408 51.7564919,43.6677276 49.3445322,43.6677276 L21.8091302,43.6677276 C19.3980234,43.6677276 17.4423574,45.6225408 17.4423574,48.0345004 C17.4423574,50.44646 19.3980234,52.4012732 21.8091302,52.4012732 L49.3445322,52.4012732 C51.7564919,52.4012732 53.711305,50.44646 53.711305,48.0345004 Z M21.8091302,61.1348187 C19.3980234,61.1348187 17.4423574,63.0896318 17.4423574,65.5015915 C17.4423574,67.9135511 19.3980234,69.8683642 21.8091302,69.8683642 L39.9559708,69.8683642 C42.3679304,69.8683642 44.3227435,67.9135511 44.3227435,65.5015915 C44.3227435,63.0896318 42.3679304,61.1348187 39.9559708,61.1348187 L21.8091302,61.1348187 Z M97.9922572,108.540743 C96.3120731,110.605578 93.8327354,111.789383 91.189644,111.789383 L48.5470844,111.789383 C45.8894938,111.789383 43.4024802,110.606431 41.724002,108.544154 C40.0352891,106.469084 39.3794203,103.773114 39.9244141,101.147933 C41.3350863,94.3521427 45.071577,88.1687242 50.4447542,83.7362793 C52.4797386,82.057801 54.7160038,80.660775 57.0870251,79.5690818 C54.4447864,76.5677783 52.8379504,72.6351241 52.8379504,68.3323178 C52.8379504,58.9411977 60.4772441,51.3019041 69.8683642,51.3019041 C79.2594844,51.3019041 86.898778,58.9411977 86.898778,68.3323178 C86.898778,72.6351241 85.2919421,76.5677783 82.6497033,79.5690818 C85.0207247,80.660775 87.2569898,82.0569482 89.2919743,83.7362793 C94.557688,88.0800241 98.2506815,94.1056587 99.7244673,100.740254 C99.7585827,100.855393 99.7875807,100.971386 99.8123143,101.089937 C100.359867,103.73047 99.6963219,106.446056 97.9922572,108.540743 Z M61.571496,68.3323178 C61.571496,72.9071946 65.2934874,76.6291861 69.8683642,76.6291861 C74.443241,76.6291861 78.1652325,72.9071946 78.1652325,68.3323178 C78.1652325,63.7574411 74.443241,60.0354496 69.8683642,60.0354496 C65.2934874,60.0354496 61.571496,63.7574411 61.571496,68.3323178 Z M91.262992,102.932169 C91.2621392,102.92961 91.2612864,102.926199 91.2612864,102.92364 C89.1640414,92.8246251 80.1669543,85.4940758 69.8683642,85.4940758 C59.5697741,85.4940758 50.5718342,92.8246251 48.475442,102.92364 C48.4558258,103.021722 48.5232036,103.053279 48.5232036,103.054132 C48.5249095,103.054132 48.5325854,103.055837 48.5470844,103.055837 L91.189644,103.055837 C91.1922025,103.053279 91.2510518,103.008928 91.262992,102.932169 Z" id="Shape"></path>
            </g>
        </g>
    </g>
</svg>