<?xml version="1.0" encoding="UTF-8"?>
<svg width="629px" height="427px" viewBox="0 0 629 427" version="1.1" xmlns="http://www.w3.org/2000/svg" xmlns:xlink="http://www.w3.org/1999/xlink">
    <!-- Generator: Sketch 52.5 (67469) - http://www.bohemiancoding.com/sketch -->
    <title>Macbook</title>
    <desc>Created with Sketch.</desc>
    <defs>
        <linearGradient x1="125.415991%" y1="-14.7189348%" x2="-14.804957%" y2="117.468741%" id="linearGradient-1">
            <stop stop-color="#17B696" offset="0%"></stop>
            <stop stop-color="#097BAD" offset="100%"></stop>
        </linearGradient>
        <linearGradient x1="125.415991%" y1="-14.7189348%" x2="-14.804957%" y2="117.468741%" id="linearGradient-2">
            <stop stop-color="#EDF6F4" offset="0%"></stop>
            <stop stop-color="#097BAD" offset="100%"></stop>
        </linearGradient>
    </defs>
    <g id="Page-1" stroke="none" stroke-width="1" fill="none" fill-rule="evenodd">
        <g id="infiome" transform="translate(0.000000, -1991.000000)">
            <g id="Macbook" transform="translate(-135.000000, 1991.000000)">
                <path d="M764,407 L384.343558,407 L0,407 L0,418.578947 C0.886069774,418.616923 17.1856324,427 29.8803681,427 L384.343558,427 L734.705521,427 C746.935318,427 763.11841,418.616923 764,418.578947 C763.988353,418.616923 764,407 764,407 Z" id="Shape" fill="url(#linearGradient-1)"></path>
                <path d="M1.75766871,408.578947 L1.75766871,417.519509 C2.12892317,417.675174 3.90888254,418.440633 4.00014957,418.479652 C6.55755912,419.573005 8.73752749,420.45344 11.133205,421.326208 C15.2365797,422.821106 19.130831,423.965294 22.771192,424.666519 C25.3421204,425.161744 27.7225224,425.421053 29.8803681,425.421053 L734.705521,425.421053 C736.939946,425.421053 739.442628,425.119902 742.171803,424.547095 C745.552576,423.837529 749.166083,422.739442 752.977754,421.329408 C755.33416,420.457713 757.475707,419.5819 760.021476,418.482359 C759.956565,418.510394 761.842985,417.691678 762.238005,417.524445 C762.237751,417.307839 762.237555,417.059641 762.237415,416.781159 C762.236916,415.784635 762.237148,414.42346 762.237971,412.788806 C762.238415,411.906798 762.239019,410.971458 762.239743,410.009321 C762.240113,409.518698 762.240499,409.039418 762.240892,408.578947 L1.75766871,408.578947 Z M734.705521,427 L29.8803681,427 C17.1856324,427 0.886069774,418.616923 0,418.578947 L0,407 L764,407 C764,407 763.992772,414.209175 763.995398,417.250674 L763.393046,417.097194 L762.427496,417.873551 L762.327808,418.092549 L762.305468,418.159555 L763.999878,418.578917 C763.11841,418.616923 746.935318,427 734.705521,427 Z" id="Shape" fill-opacity="0" fill="#FFFFFF" fill-rule="nonzero"></path>
                <path d="M458,419 L307,419 C299.451867,419 293,412.350134 293,404 L293,404 L472,404 L472,404 C472,412.350134 465.545137,419 458,419" id="Shape" fill="url(#linearGradient-2)"></path>
                <path d="M91.6872659,0 C79.6643247,0 70,9.32455224 70,20.9735376 L70,393.395543 C70,400.783053 76.4434828,407 84.6535581,407 L681.346442,407 C689.557417,407 696,400.783053 696,393.395543 L696,20.9735376 C696,9.32455224 686.335675,0 674.312734,0 L556.090183,0 L91.6872659,0 Z" id="Shape" fill="url(#linearGradient-1)"></path>
                <path d="M91.6872659,1.7005571 C80.6274218,1.7005571 71.758427,10.271529 71.758427,20.9735376 L71.758427,393.395543 C71.758427,399.91422 77.4902243,405.299443 84.6535581,405.299443 L681.346442,405.299443 C688.51035,405.299443 694.241573,399.91453 694.241573,393.395543 L694.241573,20.9735376 C694.241573,10.271529 685.372578,1.7005571 674.312734,1.7005571 L91.6872659,1.7005571 Z M91.6872659,0 L674.312734,0 C686.335675,0 696,9.32455224 696,20.9735376 L696,393.395543 C696,400.783053 689.557417,407 681.346442,407 L84.6535581,407 C76.4434828,407 70,400.783053 70,393.395543 L70,20.9735376 C70,9.32455224 79.6643247,0 91.6872659,0 Z" id="Shape" fill="url(#linearGradient-1)" fill-rule="nonzero"></path>
                <polygon id="Shape" fill="#FFFFFF" points="90 379 676 379 676 26 90 26"></polygon>
                <path d="M387,13 C387,15.7611502 384.762617,18 382,18 C379.237383,18 377,15.7611502 377,13 C377,10.2388498 379.237383,8 382,8 C384.762617,8 387,10.2388498 387,13" id="Oval" fill="#C5E4EA"></path>
            </g>
        </g>
    </g>
</svg>