<?xml version="1.0" encoding="UTF-8"?>
<svg width="79px" height="82px" viewBox="0 0 79 82" version="1.1" xmlns="http://www.w3.org/2000/svg" xmlns:xlink="http://www.w3.org/1999/xlink">
    <!-- Generator: Sketch 52.5 (67469) - http://www.bohemiancoding.com/sketch -->
    <title>presentation</title>
    <desc>Created with Sketch.</desc>
    <defs>
        <linearGradient x1="125.415991%" y1="-14.7189348%" x2="-14.804957%" y2="117.468741%" id="linearGradient-1">
            <stop stop-color="#17B696" offset="0%"></stop>
            <stop stop-color="#097BAD" offset="100%"></stop>
        </linearGradient>
    </defs>
    <g id="Page-1" stroke="none" stroke-width="1" fill="none" fill-rule="evenodd">
        <g id="infiome" transform="translate(-910.000000, -1190.000000)" fill="url(#linearGradient-1)" fill-rule="nonzero">
            <g id="presentation" transform="translate(910.000000, 1190.000000)">
                <path d="M23.8569593,9.96340461 L23.8569593,7.50152913 C23.8569593,3.35853982 20.4978927,0 16.3554302,0 C12.2119141,0 8.85337425,3.35853982 8.85337425,7.50152913 L8.85337425,9.96340461 C8.85337425,14.1058671 12.2119141,17.4649337 16.3554302,17.4649337 C20.4978927,17.4649337 23.8569593,14.1058671 23.8569593,9.96340461 Z M11.5507427,9.96340461 L11.5507427,7.50152913 C11.5712891,4.84314604 13.7318179,2.69842201 16.3907278,2.69842201 L16.3738692,2.69842201 C19.0222425,2.70316358 21.1648592,4.85368263 21.1595909,7.50152913 L21.1595909,9.96340461 C21.1595909,12.6165193 19.0085449,14.7675653 16.3554302,14.7675653 C13.7012619,14.7675653 11.5507427,12.6165193 11.5507427,9.96340461 Z" id="Shape"></path>
                <path d="M75.7786673,43.6726074 L75.7786673,16.3533228 L77.7068642,16.3533228 C78.050884,16.3633326 78.3838405,16.228991 78.6251284,15.9840152 C78.8669433,15.7390394 78.9960166,15.4039757 78.9817923,15.0599557 L78.9817923,7.09797745 C78.9817923,6.35304023 78.4512747,5.73296149 77.7068642,5.73296149 L26.2545616,5.73296149 C25.4990877,5.73770306 24.8842773,6.34250363 24.8684725,7.09797745 L24.8684725,15.0604827 C24.8684725,15.8054199 25.5096242,16.3538496 26.2545616,16.3538496 L28.240183,16.3538496 L28.240183,17.9396073 C27.6190506,17.7320363 26.9763183,17.5966411 26.3241031,17.5365826 C26.0664834,17.510241 25.7914782,17.5339483 25.532278,17.5339483 L22.2922748,17.5339483 C21.9540502,17.5202508 21.6232011,17.6382607 21.369796,17.8626901 L16.659411,22.2638261 L12.1328897,17.8869243 C11.8779039,17.649851 11.5402061,17.5228849 11.1924984,17.5334215 L7.75440741,17.5334215 C5.70767366,17.5281533 3.74365228,18.3373638 2.29487048,19.7829847 C0.846615474,21.2280788 0.0331903092,23.1905197 0.0337171053,25.2372533 C0.0337171053,25.4727462 0.0869268783,25.6755757 0.0869268783,25.9100149 L0.0869268783,44.7573499 C0.0758634868,46.0227951 0.568449355,47.2408255 1.45668428,48.1432849 C2.33227542,49.0425832 3.53239357,49.5541349 4.78782895,49.5630911 L4.78993627,49.5630911 L4.84261924,49.529374 C5.64392729,49.5140959 6.42837678,49.2917738 7.11852385,48.8834807 L7.95618325,77.0915271 C8.02993928,79.1229827 9.32119908,80.9094623 11.2267425,81.6180485 C13.1328125,82.3261077 15.2764828,81.8156095 16.659411,80.3257351 C18.0444465,81.8166632 20.1923314,82.3250539 22.0989284,81.6127801 C24.0049984,80.9005062 25.2936241,79.109285 25.3631656,77.0751953 L26.1997713,48.9056076 C27.6295872,49.6926912 29.363384,49.6900571 30.7905659,48.8992855 C32.2177477,48.109041 33.1396998,46.6402394 33.2313683,45.0112819 L50.6604775,45.0112819 L50.6604775,50.5746043 C48.1322214,51.1620194 46.3251953,53.3293971 46.3251953,55.907702 C46.3251953,58.9353927 48.8618807,61.3988487 51.9880885,61.3988487 C55.1148232,61.3988487 57.6688939,58.9353927 57.6688939,55.907702 C57.6683671,53.3288702 55.8866288,51.1609658 53.3578459,50.5746043 L53.3578459,45.0112819 L74.3983733,45.0112819 C75.1469984,45.0181307 75.7628623,44.4212326 75.7786673,43.6726074 Z M54.9536133,55.9071752 C54.9536133,57.4476254 53.6202072,58.7014803 51.9812397,58.7014803 C50.3412187,58.7014803 49.0083393,57.4476254 49.0083393,55.9071752 C49.0083393,54.3661981 50.3417455,53.1128701 51.9812397,53.1128701 C53.6202072,53.1128701 54.9536133,54.3661981 54.9536133,55.9071752 Z M27.5658409,8.43032991 L76.2844239,8.43032991 L76.2844239,13.6559544 L27.5658409,13.6559544 L27.5658409,8.43032991 Z M20.3124486,79.2325633 C19.020662,79.23309 17.9701635,78.1931282 17.9569927,76.9018684 L17.9569927,49.108437 C17.9569927,48.3640265 17.3527189,47.7597528 16.6083085,47.7597528 C15.8633712,47.7597528 15.2596242,48.3640265 15.2596242,49.108437 L15.2596242,76.9018684 C15.2669999,78.1678403 14.2539063,79.2035876 12.988988,79.2251876 C11.7235428,79.2467877 10.6756785,78.2473915 10.6388003,76.9819465 L9.68734581,44.5055254 L23.6320029,44.5055254 L22.6536801,76.9729903 C22.6078459,78.233694 21.5731522,79.2309827 20.3124486,79.2325633 Z M28.4640856,46.7972348 C27.3277138,46.8003957 26.401547,45.8889803 26.3857422,44.7536621 L26.3857422,40.6370143 L26.4047081,39.9816381 C26.4078691,39.8883891 26.3857422,39.796194 26.3857422,39.7082134 L26.3857422,32.0981574 C26.3857422,31.3532201 25.7819952,30.7494732 25.037058,30.7494732 C24.2921208,30.7494732 23.6883738,31.3532201 23.6883738,32.0981574 L23.6883738,40.5975021 L23.7115543,41.8092105 L9.60674088,41.8092105 L9.54826275,39.8894428 C9.54720902,39.8267501 9.52771635,39.7788085 9.52771635,39.7182232 L9.52771635,32.0981574 C9.52771635,31.3532201 8.9239695,30.7494732 8.17903214,30.7494732 C7.43462171,30.7494732 6.83087486,31.3532201 6.83087486,32.0981574 L6.83087486,44.6604132 C6.83087486,45.8273412 5.92630805,46.8657227 4.80890214,46.8657227 L4.78888254,46.8657227 C4.24782847,46.8546592 3.735223,46.6270687 3.36380805,46.2340538 C2.98343702,45.837351 2.77586602,45.3057797 2.78482223,44.7557694 L2.78482223,25.844688 C2.78482223,25.8004343 2.76164159,25.7546002 2.75742695,25.7092928 C2.73688069,25.5528244 2.72476357,25.3953022 2.72107573,25.2372533 C2.72212945,23.9049008 3.25370066,22.6273387 4.19777961,21.6880012 C5.14291214,20.7486637 6.42310855,20.2239412 7.75546101,20.23079 L10.6445955,20.23079 L15.7021613,25.1139752 C15.7121711,25.1234581 15.7216539,25.1129215 15.7316637,25.1218775 C15.7501028,25.1382093 15.7680149,25.145058 15.786454,25.160863 C15.8054199,25.176141 15.8206981,25.1829898 15.8386102,25.1961605 C15.8559955,25.2093313 15.8770687,25.2225021 15.8976151,25.2356728 C15.9171078,25.2498972 15.9339664,25.2583265 15.9529322,25.2699168 C15.9713713,25.281507 15.9929713,25.2930972 16.0135177,25.3036339 C16.0345909,25.3136436 16.0530299,25.3225996 16.0735763,25.3320826 C16.093069,25.3410387 16.1141422,25.3510485 16.1352154,25.3594778 C16.1562886,25.3684339 16.1768348,25.3752828 16.197908,25.3826583 C16.2189812,25.3900339 16.2395276,25.3974095 16.2606008,25.4037315 C16.281674,25.4095267 16.3043277,25.4147949 16.3264546,25.4200633 C16.3485814,25.4263852 16.368601,25.4305998 16.3896742,25.4348145 C16.4112742,25.4385023 16.4344547,25.44219 16.4571084,25.4448242 C16.4802888,25.4479852 16.5003084,25.4511462 16.5219084,25.4532534 C16.5429816,25.4553609 16.5651085,25.4558877 16.5877622,25.4564145 C16.6062011,25.4564145 16.6246402,25.4590486 16.6436061,25.4590486 L16.6541427,25.4590486 C16.6694207,25.4590486 16.6836451,25.457995 16.6989232,25.4569413 C16.7268453,25.4564145 16.7537135,25.4553609 16.7811086,25.4527266 C16.7969136,25.4506193 16.8121916,25.4479852 16.8274696,25.4458779 C16.854338,25.44219 16.8806794,25.4385023 16.907021,25.433234 C16.9228258,25.4300731 16.9386308,25.4253315 16.9544357,25.4221706 C16.9802503,25.4163754 17.0050114,25.4095267 17.030826,25.4026778 C17.0471578,25.3974095 17.0629626,25.3910876 17.0798211,25.3852924 C17.1040552,25.3773899 17.1277627,25.3689607 17.15147,25.3594778 C17.1683285,25.352629 17.1851871,25.3447266 17.2020456,25.337351 C17.2246994,25.3268143 17.2462993,25.3168046 17.2684261,25.3052143 C17.2852847,25.2962582 17.3021432,25.2867754 17.318475,25.2767656 C17.3395482,25.2641216 17.3600946,25.2525313 17.3801142,25.2393606 C17.3969727,25.2277704 17.4143581,25.2161801 17.4306898,25.204063 C17.4501825,25.1903655 17.4686216,25.176141 17.4881142,25.160863 C17.5039191,25.1482191 17.519724,25.1345215 17.5355289,25.1208239 C17.5450119,25.1118677 17.556602,25.1403166 17.566085,25.1303068 L22.8264803,20.23079 L25.5317512,20.23079 C25.7003367,20.23079 25.884727,20.202868 26.052259,20.2202534 C26.8261719,20.2887413 27.5742701,20.5321366 28.240183,20.9325272 L28.240183,43.6726074 C28.2349146,44.0261102 28.3718905,44.3680227 28.6205541,44.6193206 C28.8692178,44.8711451 29.209023,45.0128623 29.5635794,45.0112819 L30.5224095,45.0112819 C30.3775313,46.0364926 29.4987793,46.7977616 28.4640856,46.7972348 Z M30.9370246,42.3139135 L30.9370246,16.3533228 L73.0812989,16.3533228 L73.0812989,42.3139135 L30.9370246,42.3139135 Z" id="Shape"></path>
                <path d="M56.0552143,29.5024671 C56.0552143,28.7575297 55.4514674,28.1537829 54.7065301,28.1537829 L49.1437345,28.1537829 C48.3987973,28.1537829 47.7950503,28.7575297 47.7950503,29.5024671 L47.7950503,38.4369732 C47.7950503,39.1813836 48.3987973,39.7856574 49.1437345,39.7856574 L54.7065301,39.7856574 C55.4514674,39.7856574 56.0552143,39.1813836 56.0552143,38.4369732 L56.0552143,29.5024671 Z M53.3578459,37.088289 L50.4918919,37.088289 L50.4918919,30.8511513 L53.3578459,30.8511513 L53.3578459,37.088289 Z" id="Shape"></path>
                <path d="M45.0976819,25.625 C45.0976819,24.8800626 44.493935,24.2763158 43.7489977,24.2763158 L38.1862022,24.2763158 C37.4412649,24.2763158 36.837518,24.8800626 36.837518,25.625 L36.837518,38.4369732 C36.837518,39.1813836 37.4412649,39.7856574 38.1862022,39.7856574 L43.7489977,39.7856574 C44.493935,39.7856574 45.0976819,39.1813836 45.0976819,38.4369732 L45.0976819,25.625 Z M42.568899,37.088289 L39.5343595,37.088289 L39.5343595,26.9736842 L42.568899,26.9736842 L42.568899,37.088289 Z" id="Shape"></path>
                <path d="M67.0127467,21.7475329 C67.0127467,21.0031225 66.4089999,20.3993755 65.6640625,20.3993755 L60.1007401,20.3993755 C59.3563297,20.3993755 58.7525827,21.0031225 58.7525827,21.7475329 L58.7525827,38.2683877 C58.7525827,39.0127981 59.3563297,39.6170719 60.1007401,39.6170719 L65.6640625,39.6170719 C66.4089999,39.6170719 67.0127467,39.0127981 67.0127467,38.2683877 L67.0127467,21.7475329 Z M64.3153783,37.088289 L61.4494243,37.088289 L61.4494243,23.0962171 L64.3153783,23.0962171 L64.3153783,37.088289 Z" id="Shape"></path>
            </g>
        </g>
    </g>
</svg>