<?xml version="1.0" encoding="UTF-8"?>
<svg width="332px" height="33px" viewBox="0 0 332 33" version="1.1" xmlns="http://www.w3.org/2000/svg" xmlns:xlink="http://www.w3.org/1999/xlink">
    <!-- Generator: Sketch 52.5 (67469) - http://www.bohemiancoding.com/sketch -->
    <title>Social</title>
    <desc>Created with Sketch.</desc>
    <g id="Page-1" stroke="none" stroke-width="1" fill="none" fill-rule="evenodd">
        <g id="infiome" transform="translate(-554.000000, -6928.000000)" fill="#FFFFFF">
            <g id="Group-13" transform="translate(554.000000, 6853.000000)">
                <g id="Social" transform="translate(0.000000, 75.000000)">
                    <path d="M313.753526,14.9910901 C314.396661,14.6407233 314.883243,14.2509172 315.214965,13.8262579 C315.807325,13.0659067 316.100967,12.057914 316.100967,10.8087002 C316.100967,9.59525681 315.807325,8.55424528 315.222581,7.68291405 C314.247724,6.26401992 312.594192,5.53760482 310.257752,5.5 L301,5.5 L301,25.9836216 L309.632388,25.9836216 C310.605552,25.9836216 311.50594,25.8937369 312.33863,25.7084644 C313.172166,25.5213574 313.892308,25.1801625 314.502439,24.6793763 C315.045719,24.2427935 315.497605,23.7053197 315.858099,23.0678721 C316.429304,22.1048218 316.713637,21.0151992 316.713637,19.8017558 C316.713637,18.6240828 316.463999,17.6225105 315.968109,16.7997904 C315.467141,15.9752358 314.730075,15.3735587 313.753526,14.9910901 L313.753526,14.9910901 Z M304.819034,9.05686583 L308.989254,9.05686583 C309.90572,9.05686583 310.660557,9.16417715 311.25461,9.37696541 C311.940056,9.68422432 312.282779,10.3143344 312.282779,11.2709644 C312.282779,12.1285377 312.02214,12.7283805 311.504248,13.0677411 C310.98297,13.4071017 310.306833,13.576782 309.477528,13.576782 L304.819034,13.576782 L304.819034,9.05686583 L304.819034,9.05686583 Z M311.411163,22.0681342 C310.949967,22.307521 310.300909,22.4285901 309.469912,22.4285901 L304.819034,22.4285901 L304.819034,16.9658019 L309.535918,16.9658019 C310.355914,16.9731394 310.995664,17.0905398 311.451782,17.3125 C312.265854,17.7123952 312.670352,18.4433962 312.670352,19.5110063 C312.670352,20.7703092 312.251469,21.6196279 311.411163,22.0681342 Z M320.808542,6.4547956 L329.017815,6.4547956 L329.017815,9.00366876 L320.808542,9.00366876 L320.808542,6.4547956 Z M330.740739,13.3850891 C331.325483,14.2857704 331.701209,15.3304507 331.872148,16.5172956 C331.972849,17.211609 332.012622,18.2168501 331.996544,19.5247642 L321.675081,19.5247642 C321.736856,21.0427149 322.22513,22.1084906 323.158522,22.7193396 C323.722957,23.0990566 324.403325,23.2898323 325.20132,23.2898323 C326.041626,23.2898323 326.728764,23.057783 327.255965,22.5964361 C327.545376,22.3442086 327.800937,21.9975105 328.019264,21.5535901 L331.801064,21.5535901 C331.701209,22.4496855 331.241707,23.3641247 330.429326,24.2914046 C329.159982,25.7634958 327.383746,26.5 325.099772,26.5 C323.21268,26.5 321.548993,25.879979 320.111249,24.6362683 C318.665889,23.3953092 317.94744,21.3719864 317.94744,18.5736373 C317.94744,15.9486373 318.59819,13.9354036 319.897999,12.5339361 C321.201193,11.1361373 322.886882,10.432652 324.962683,10.432652 C326.196486,10.432652 327.306739,10.6702044 328.294289,11.144392 C329.284378,11.6158281 330.099297,12.3642558 330.740739,13.3850891 Z M321.765628,16.9107704 C321.901025,15.9247904 322.231054,15.1433438 322.754024,14.5664308 C323.276994,13.9895178 324.016599,13.7015199 324.964376,13.7015199 C325.839377,13.7015199 326.570519,13.9720912 327.164573,14.5159853 C327.751856,15.0635482 328.083578,15.8587526 328.15043,16.9107704 L321.765628,16.9107704 L321.765628,16.9107704 Z" id="Behance"></path>
                    <path d="M253.315141,0.5 L229.684859,0.5 C227.649647,0.5 226,2.19849712 226,4.29499768 L226,28.7050023 C226,30.8006301 227.649647,32.5 229.684859,32.5 L253.315141,32.5 C255.350353,32.5 257,30.8006301 257,28.7050023 L257,4.29499768 C257,2.19849712 255.350353,0.5 253.315141,0.5 L253.315141,0.5 Z M248.281646,5.49948177 C248.281646,4.94786297 248.715408,4.5001091 249.249789,4.5001091 L252.155906,4.5001091 C252.691133,4.5001091 253.124894,4.94786297 253.124894,5.49948177 L253.124894,8.5002182 C253.124894,9.051837 252.691133,9.49959087 252.155906,9.49959087 L249.249789,9.49959087 C248.715408,9.49959087 248.281646,9.051837 248.281646,8.5002182 L248.281646,5.49948177 L248.281646,5.49948177 Z M241.535935,10.397717 C244.828465,10.397717 247.497832,13.1470829 247.497832,16.5370946 C247.497832,19.9279792 244.828465,22.6764722 241.535935,22.6764722 C238.244252,22.6764722 235.574885,19.9279792 235.574885,16.5370946 C235.574885,13.1470829 238.244252,10.397717 241.535935,10.397717 L241.535935,10.397717 Z M254.093882,28.4998909 C254.093882,29.0515097 253.660121,29.5001364 253.124894,29.5001364 L229.875106,29.5001364 C229.339879,29.5001364 228.906118,29.0515097 228.906118,28.4998909 L228.906118,13.4997 L232.781224,13.4997 C232.276437,14.2494477 232.105638,15.6485694 232.105638,16.5370946 C232.105638,21.8918119 236.336715,26.2489022 241.535935,26.2489022 C246.736001,26.2489022 250.967079,21.8918119 250.967079,16.5370946 C250.967079,15.6485694 250.844475,14.271268 250.218776,13.4997 L254.093882,13.4997 L254.093882,28.4998909 L254.093882,28.4998909 Z" id="Instagram"></path>
                    <path d="M182.144982,0.980663869 C180.915013,1.73206562 179.555923,2.27853962 178.103303,2.57093653 C176.946173,1.29638589 175.29242,0.5 173.461538,0.5 C169.952073,0.5 167.103944,3.43896383 167.103944,7.06351927 C167.103944,7.57833777 167.158572,8.07732851 167.267829,8.55799237 C161.982111,8.28392234 157.296478,5.67400916 154.157824,1.69791099 C153.609884,2.67090128 153.297012,3.79966999 153.297012,5.00174618 C153.297012,7.27761046 154.419379,9.28690205 156.126932,10.4639871 C155.085681,10.4323315 154.103196,10.1341034 153.244039,9.64594214 L153.244039,9.72591394 C153.244039,12.9072923 155.436627,15.5613566 158.34849,16.1619781 C157.815449,16.3160905 157.25261,16.3935632 156.672389,16.3935632 C156.262676,16.3935632 155.862895,16.3535773 155.475529,16.2769376 C156.285024,18.8835186 158.632393,20.782016 161.415961,20.8328314 C159.239927,22.5938772 156.496088,23.6435071 153.517182,23.6435071 C153.004005,23.6435071 152.496622,23.6135177 152,23.5535388 C154.814194,25.4128833 158.158946,26.5 161.749526,26.5 C173.449123,26.5 179.844792,16.5001922 179.844792,7.82575054 C179.844792,7.54001794 179.839826,7.25511839 179.829066,6.97521707 C181.07145,6.04971004 182.150776,4.89428407 183,3.57808145 C181.861079,4.09956426 180.634422,4.45277306 179.34817,4.61105059 C180.661736,3.79966999 181.66988,2.51345679 182.144982,0.980663869" id="Twitter"></path>
                    <path d="M108,30.7331663 C108,31.7085422 107.234099,32.5 106.289178,32.5 L98.3895018,32.5 L98.3895018,20.1077577 L102.419139,20.1077577 L103.022909,15.2788189 L98.3895018,15.2788189 L98.3895018,12.1949226 C98.3895018,10.7967967 98.7661191,9.84408368 100.708316,9.84408368 L103.185884,9.84321203 L103.185884,5.52331663 C102.756912,5.4649161 101.286753,5.33329701 99.5759309,5.33329701 C96.003977,5.33329701 93.5584975,7.58389627 93.5584975,11.7172587 L93.5584975,15.2788189 L89.5187274,15.2788189 L89.5187274,20.1077577 L93.5584975,20.1077577 L93.5584975,32.5 L78.7108224,32.5 C77.7659012,32.5 77,31.7085422 77,30.7331663 L77,2.26683373 C77,1.29058618 77.7659012,0.5 78.7108224,0.5 L106.289178,0.5 C107.234099,0.5 108,1.29058618 108,2.26683373 L108,30.7331663" id="Facebook"></path>
                    <path d="M10.7991475,14.7227501 L21.1702723,14.7227501 C21.89235,20.2338292 19.7134786,28.5 10.7991475,28.5 C4.83547692,28.5 0,23.350773 0,16.9995522 C0,10.6483313 4.83547692,5.5 10.7991475,5.5 C13.5973038,5.5 16.1469036,6.63302699 18.0654226,8.49244519 C15.805665,10.7656646 15.8798107,10.9009113 14.9917478,11.8467425 C13.8820906,10.8695627 12.6721681,10.1682503 10.7991475,10.1682503 C7.25616435,10.1682503 4.49086809,13.2269753 4.49086809,16.9995522 C4.49086809,20.7730247 7.25616435,23.8317497 10.7991475,23.8317497 C14.3000025,23.8317497 15.7222511,22.2240157 16.637276,19.2709802 C14.9479345,19.2709802 10.7991475,19.2772499 10.7991475,19.2772499 L10.7991475,14.7227501 Z M30.2581716,14.9502512 L34,14.9502512 L34,17.7967016 L30.2581716,17.7967016 L30.2581716,21.8961992 L27.5855575,21.8961992 L27.5855575,17.7967016 L23.7358809,17.7967016 L23.7358809,14.9502512 L27.5855575,14.9502512 L27.5855575,10.9653997 L30.2581716,10.9653997 L30.2581716,14.9502512 Z" id="Google+"></path>
                </g>
            </g>
        </g>
    </g>
</svg>