<?xml version="1.0" encoding="UTF-8"?>
<svg width="100px" height="121px" viewBox="0 0 100 121" version="1.1" xmlns="http://www.w3.org/2000/svg" xmlns:xlink="http://www.w3.org/1999/xlink">
    <!-- Generator: Sketch 52.5 (67469) - http://www.bohemiancoding.com/sketch -->
    <title>start</title>
    <desc>Created with Sketch.</desc>
    <g id="Page-1" stroke="none" stroke-width="1" fill="none" fill-rule="evenodd">
        <g id="infiome" transform="translate(-330.000000, -3964.000000)" fill="#07889B">
            <g id="start" transform="translate(330.000000, 3964.000000)">
                <path d="M50,38.9160377 C38.1660377,38.9160377 28.5386792,48.5433962 28.5386792,60.3773585 C28.5386792,64.5438679 29.7334906,68.4358491 31.7964623,71.7316038 C31.8591981,71.8533019 31.9346698,71.9700472 32.0200472,72.0816038 C35.8540094,77.9511792 42.4811321,81.8386792 50,81.8386792 C61.8339623,81.8386792 71.4613208,72.2110849 71.4613208,60.3773585 C71.4613208,48.5436321 61.8339623,38.9160377 50,38.9160377 Z M34.5018868,66.707783 C33.7007075,64.7535377 33.2554245,62.6169811 33.2554245,60.3773585 C33.2556604,51.1443396 40.7669811,43.6330189 50,43.6330189 C55.6497642,43.6330189 60.6509434,46.4483491 63.6849057,50.746934 L50.7318396,63.7 L45.7884434,58.7568396 C44.867217,57.8358491 43.3742925,57.8360849 42.4528302,58.7568396 L34.5018868,66.707783 Z M50,77.1216981 C44.7490566,77.1216981 40.0570755,74.6900943 36.9846698,70.8959906 L44.1207547,63.7599057 L49.0641509,68.703066 C49.9853774,69.6240566 51.4783019,69.6238208 52.3997642,68.703066 L65.9167453,55.1860849 C66.4516509,56.8214623 66.7445755,58.5653302 66.7445755,60.3771226 C66.7443396,69.6101415 59.232783,77.1216981 50,77.1216981 Z" id="Shape" fill-rule="nonzero"></path>
                <path d="M86.2841981,58.7502358 C85.9136792,47.2247642 82.6884434,35.921934 76.8992925,25.9278302 C70.7358491,15.2877358 61.8398585,6.42995283 51.1731132,0.3125 C50.4466981,-0.104245283 49.553066,-0.104245283 48.8266509,0.3125 C38.1601415,6.42995283 29.2641509,15.2877358 23.1004717,25.9275943 C17.3113208,35.9216981 14.0860849,47.2245283 13.715566,58.75 C5.44764151,62.2981132 0,70.4622642 0,79.5639151 L0,96.2264151 C0,97.5290094 1.05613208,98.5849057 2.35849057,98.5849057 L37.0143868,98.5849057 C37.5226415,105.679009 40.6285377,112.473821 45.7132075,117.483726 L48.3445755,120.076415 C48.8035377,120.528538 49.4016509,120.754717 50,120.754717 C50.5983491,120.754717 51.1962264,120.528538 51.6554245,120.076415 L54.2867925,117.483726 C59.3714623,112.473821 62.4773585,105.679245 62.9856132,98.5851415 L70.2830189,98.5851415 L70.2830189,110.757783 C70.2830189,112.060377 71.3391509,113.116274 72.6415094,113.116274 C73.9438679,113.116274 75,112.060377 75,110.757783 L75,98.5849057 L97.6415094,98.5849057 C98.9438679,98.5849057 100,97.5290094 100,96.2264151 L100,79.5641509 C100,70.4622642 94.5521226,62.2981132 86.2841981,58.7502358 Z M50,5.09363208 C57.415566,9.55566038 63.754717,15.3938679 68.7674528,22.1698113 L31.2325472,22.1698113 C36.245283,15.3938679 42.584434,9.55566038 50,5.09363208 Z M4.71698113,93.8679245 L4.71698113,79.5639151 C4.71698113,73.0792453 8.20990566,67.1955189 13.6792453,64.0346698 L13.6792453,91.509434 C13.6792453,92.3363208 13.8231132,93.129717 14.0849057,93.8679245 L4.71698113,93.8679245 Z M50.9761792,114.123585 L50,115.085377 L49.0238208,114.123585 C44.8330189,109.994575 42.2438679,104.421934 41.7459906,98.5849057 L58.2540094,98.5849057 C57.7558962,104.421934 55.1667453,109.994575 50.9761792,114.123585 Z M81.6037736,91.509434 C81.6037736,92.8099057 80.5457547,93.8679245 79.245283,93.8679245 L20.754717,93.8679245 C19.4542453,93.8679245 18.3962264,92.8099057 18.3962264,91.509434 L18.3962264,60.9877358 C18.3962264,52.4476415 20.0830189,44.1259434 23.2141509,36.4386792 L33.8931604,36.4386792 C35.1955189,36.4386792 36.2516509,35.382783 36.2516509,34.0801887 C36.2516509,32.7775943 35.1955189,31.7216981 33.8931604,31.7216981 L25.3568396,31.7216981 C26.1858491,30.0726415 27.0846698,28.4596698 28.0495283,26.8867925 L71.9504717,26.8867925 C78.1497642,36.9938679 81.6037736,48.7669811 81.6037736,60.9877358 L81.6037736,91.509434 Z M95.2830189,93.8679245 L85.9150943,93.8679245 C86.1768868,93.129717 86.3207547,92.3363208 86.3207547,91.509434 L86.3207547,64.0349057 C91.7900943,67.1955189 95.2830189,73.0792453 95.2830189,79.5641509 L95.2830189,93.8679245 Z" id="Shape" fill-rule="nonzero"></path>
                <path d="M44.1200472,32.4127358 C43.6816038,31.9740566 43.0731132,31.7216981 42.4528302,31.7216981 C41.8325472,31.7216981 41.2240566,31.9740566 40.7853774,32.4127358 C40.3466981,32.8514151 40.0943396,33.4599057 40.0943396,34.0801887 C40.0943396,34.7004717 40.3464623,35.3089623 40.7853774,35.7476415 C41.2242925,36.1863208 41.8325472,36.4386792 42.4528302,36.4386792 C43.0731132,36.4386792 43.6816038,36.1863208 44.1200472,35.7476415 C44.5587264,35.3089623 44.8113208,34.7004717 44.8113208,34.0801887 C44.8113208,33.4599057 44.5589623,32.8514151 44.1200472,32.4127358 Z" id="Path"></path>
                <path d="M27.3584906,104.894104 C26.0561321,104.894104 25,105.95 25,107.252594 L25,114.51816 C25,115.820755 26.0561321,116.876651 27.3584906,116.876651 C28.6608491,116.876651 29.7169811,115.820755 29.7169811,114.51816 L29.7169811,107.252594 C29.7169811,105.95 28.6608491,104.894104 27.3584906,104.894104 Z" id="Path"></path>
                <path d="M74.3087264,116.728774 C73.870283,116.290094 73.2617925,116.037736 72.6415094,116.037736 C72.0212264,116.037736 71.4127358,116.290094 70.9740566,116.728774 C70.5353774,117.167453 70.2830189,117.775943 70.2830189,118.396226 C70.2830189,119.016509 70.5351415,119.625 70.9740566,120.063679 C71.4129717,120.502358 72.0212264,120.754717 72.6415094,120.754717 C73.2617925,120.754717 73.870283,120.502358 74.3087264,120.063679 C74.7474057,119.625 75,119.016509 75,118.396226 C75,117.775943 74.7476415,117.167453 74.3087264,116.728774 Z" id="Path"></path>
            </g>
        </g>
    </g>
</svg>