<?xml version="1.0" encoding="UTF-8"?>
<svg width="81px" height="82px" viewBox="0 0 81 82" version="1.1" xmlns="http://www.w3.org/2000/svg" xmlns:xlink="http://www.w3.org/1999/xlink">
    <!-- Generator: Sketch 52.5 (67469) - http://www.bohemiancoding.com/sketch -->
    <title>study</title>
    <desc>Created with Sketch.</desc>
    <defs>
        <linearGradient x1="125.415991%" y1="-14.7189348%" x2="-14.804957%" y2="117.468741%" id="linearGradient-1">
            <stop stop-color="#17B696" offset="0%"></stop>
            <stop stop-color="#097BAD" offset="100%"></stop>
        </linearGradient>
    </defs>
    <g id="Page-1" stroke="none" stroke-width="1" fill="none" fill-rule="evenodd">
        <g id="infiome" transform="translate(-577.000000, -1190.000000)" fill="url(#linearGradient-1)" fill-rule="nonzero">
            <g id="study" transform="translate(577.000000, 1190.000000)">
                <path d="M76.2535991,43.3865161 L76.2535991,35.8417444 C76.2535991,34.5281485 75.191109,33.4631908 73.8805569,33.4631908 C68.978168,33.4631908 64.4076887,33.877852 60.0895428,34.7246171 C57.5723778,32.2881854 54.5037178,30.5204444 51.1806676,29.554276 C54.8041449,26.4975176 57.1110584,21.9207049 57.1110584,16.8133162 C57.1110584,7.54504452 49.6592311,0.00487128713 40.4997627,0.00487128713 C31.3402943,0.00487128713 23.888467,7.54504452 23.888467,16.8133162 C23.888467,21.9207049 26.1953805,26.4975176 29.819016,29.5541174 C26.4959658,30.5204444 23.4273058,32.2881854 20.9101408,34.7244585 C16.5919949,33.877852 12.0215156,33.4630323 7.11912672,33.4630323 C5.80857459,33.4630323 4.74608448,34.52799 4.74608448,35.8415858 L4.74608448,43.3863576 C1.98402152,44.3682245 0,47.012066 0,50.1129069 L0,54.870014 C0,57.9708549 1.98402152,60.6146964 4.74608448,61.5965633 L4.74608448,69.1413351 C4.74608448,70.4549309 5.80857459,71.5198886 7.11912672,71.5198886 C19.5268154,71.5198886 29.7155513,74.4665993 39.1836735,80.7932345 C39.9770606,81.3231763 41.0221484,81.3244448 41.8163265,80.7932345 C51.2844487,74.4665993 61.4730264,71.5198886 73.8808733,71.5198886 C75.1914254,71.5198886 76.2539155,70.4549309 76.2539155,69.1413351 L76.2539155,61.5965633 C79.0159785,60.6146964 81,57.9708549 81,54.870014 L81,50.1129069 C80.9996836,47.0122246 79.0156621,44.368383 76.2535991,43.3865161 Z M28.6345515,16.8133162 C28.6345515,10.1681133 33.9572852,4.76197833 40.4997627,4.76197833 C47.0422402,4.76197833 52.3649739,10.1681133 52.3649739,16.8133162 C52.3649739,23.3709882 47.0422402,28.7060838 40.4997627,28.7060838 C33.9572852,28.7060838 28.6345515,23.3709882 28.6345515,16.8133162 Z M7.11896852,57.2487261 C5.81047303,57.2487261 4.74592628,56.181707 4.74592628,54.8701725 L4.74592628,50.1130655 C4.74592628,48.8015311 5.81047303,47.734512 7.11896852,47.734512 C8.42746401,47.734512 9.49201076,48.8015311 9.49201076,50.1130655 L9.49201076,54.8701725 C9.49201076,56.181707 8.42746401,57.2487261 7.11896852,57.2487261 Z M38.1267205,74.5463601 C29.5121025,69.6083245 20.2678374,67.1125875 9.49201076,66.7971913 L9.49201076,61.5967219 C12.2540737,60.614855 14.2380952,57.9710135 14.2380952,54.8701725 L14.2380952,50.1130655 C14.2380952,47.0122246 12.2540737,44.368383 9.49201076,43.3865161 L9.49201076,38.2539148 C20.6423034,38.5747024 29.6049676,41.2064925 38.1267205,46.6448173 L38.1267205,74.5463601 Z M40.4997627,42.5237355 C36.1197595,39.7536721 31.5606708,37.6445294 26.6937193,36.1623734 C29.3679798,34.4203208 32.5160576,33.4631908 35.7536782,33.4631908 L45.2458472,33.4631908 C48.4834678,33.4631908 51.6315456,34.4203208 54.305806,36.1623734 C49.4388546,37.6445294 44.8796077,39.7536721 40.4997627,42.5237355 Z M71.5075146,66.7971913 C60.7318462,67.1125875 51.4872647,69.6089587 42.8728049,74.5466773 L42.8728049,46.6467202 C51.394716,41.2079197 60.3567474,38.5745438 71.5075146,38.2539148 L71.5075146,43.3865161 C68.7454517,44.368383 66.7614302,47.0122246 66.7614302,50.1130655 L66.7614302,54.8701725 C66.7614302,57.9710135 68.7454517,60.614855 71.5075146,61.5967219 L71.5075146,66.7971913 Z M76.2535991,54.8701725 C76.2535991,56.181707 75.1890524,57.2487261 73.8805569,57.2487261 C72.5720614,57.2487261 71.5075146,56.181707 71.5075146,54.8701725 L71.5075146,50.1130655 C71.5075146,48.8015311 72.5720614,47.734512 73.8805569,47.734512 C75.1890524,47.734512 76.2535991,48.8015311 76.2535991,50.1130655 L76.2535991,54.8701725 Z" id="Shape"></path>
            </g>
        </g>
    </g>
</svg>